# xmcd
#
# Track frame offsets: 
#        183
#        22770
#        43270
#        61938
#        81410
#        97733
#        115618
#        135750
#        153560
#        173938
#        194803
#        220928
#        238398
#        259475
#        277440
#        299188
#        317988
#
# Disc length: 4532 seconds
#
# Revision: 10
# Processed by: cddbd v1.5.2PL0 Copyright (c) Steve Scherf et al.
# Submitted via: ExactAudioCopyFreeDBPlugin 1.0
#
DISCID=0d11b211
DTITLE=Jimmy Somerville / The Singles Collection 1984-1990
DYEAR=1984
DGENRE=Pop
TTITLE0=Bronski Beat - Smalltown Boy
TTITLE1=The Communards feat. Sarah Jane Morris - Don't Leave Me This W
TTITLE1=ay
TTITLE2=Bronski Beat - Ain't Necessarily So
TTITLE3=Jimmy Somerville - To Love Sombody
TTITLE4=Jimmy Somerville - Comment te dire adieu
TTITLE5=Jimmy Somerville - Run From Love
TTITLE6=The Communards - Never Can Say Goodbye
TTITLE7=Bronski Beat - Why?
TTITLE8=The Communards - You Are My World
TTITLE9=The Communards - For a Friend
TTITLE10=Bronski Beat feat. Marc Almond - I Feel Love - Johnny Remembe
TTITLE10=r Me
TTITLE11=The Communards - There's More To Love Than Boy Meets Girl
TTITLE12=The Communards - So Cold The Night
TTITLE13=Jimmy Somerville - You Make Me Feel (Mighty Real)
TTITLE14=The Communards - Tomorrow
TTITLE15=The Communards - Disenchanted
TTITLE16=Jimmy Somerville - Read My Lips
EXTD=
EXTT0=
EXTT1=
EXTT2=
EXTT3=
EXTT4=
EXTT5=
EXTT6=
EXTT7=
EXTT8=
EXTT9=
EXTT10=
EXTT11=
EXTT12=
EXTT13=
EXTT14=
EXTT15=
EXTT16=
PLAYORDER=
